<svg width="12" height="15" viewBox="0 0 12 15" fill="none" xmlns="http://www.w3.org/2000/svg">
<path d="M6 3.90375C9.3135 3.90375 12 3.03 12 1.95225C12 0.87375 9.3135 0 6 0C2.6865 0 0 0.87375 0 1.95225C0 3.03 2.6865 3.90375 6 3.90375ZM6 15C9.72225 15 12 13.7355 12 13.0477V9.74475C11.961 9.76875 11.916 9.78975 11.8762 9.81225C11.6952 9.91871 11.5087 10.0156 11.3175 10.1025C11.1725 10.1685 11.0225 10.2317 10.8675 10.2922C10.821 10.3108 10.7738 10.329 10.7257 10.347C9.20418 10.861 7.60668 11.114 6.00075 11.0955C4.3995 11.1158 2.80575 10.863 1.27575 10.347L1.134 10.2922C0.916777 10.209 0.703546 10.1156 0.495 10.0125C0.369448 9.95009 0.246122 9.8833 0.12525 9.81225C0.0854999 9.78975 0.0404999 9.76875 0.00149989 9.74475V13.0477C-1.0879e-07 13.7362 2.27775 15 6 15ZM11.3175 4.554C11.1696 4.62212 11.0195 4.6854 10.8675 4.74375C10.821 4.76275 10.7738 4.78125 10.7257 4.79925C9.20418 5.31323 7.60668 5.5663 6.00075 5.54775C4.3995 5.568 2.80575 5.31525 1.27575 4.79925L1.134 4.74375C0.91679 4.66071 0.703559 4.56761 0.495 4.46475C0.369437 4.40209 0.246111 4.33505 0.12525 4.26375C0.0839999 4.24125 0.039 4.22025 0 4.19625V7.5C0 8.18775 2.27775 9.45225 6 9.45225C9.72225 9.45225 12 8.18775 12 7.5V4.197C11.961 4.22025 11.916 4.24125 11.8762 4.2645C11.6952 4.37071 11.5087 4.46734 11.3175 4.554Z" fill="#138604"/>
</svg>
