<svg width="13" height="13" viewBox="0 0 13 13" fill="none" xmlns="http://www.w3.org/2000/svg">
<path d="M12.9991 0H8.44869V4.55076L10.1475 2.85181C11.0011 3.70442 11.4813 4.86115 11.4823 6.06768C11.4823 6.82614 11.2927 7.53909 10.9666 8.16861L12.0739 9.27596C12.8048 8.11656 13.1175 6.74217 12.9603 5.38064C12.803 4.01911 12.1852 2.75221 11.2093 1.78997L12.9991 0ZM0 1.06943L1.78985 2.85939C1.05894 4.01879 0.746189 5.39318 0.903437 6.75471C1.06069 8.11625 1.67849 9.38315 2.65443 10.3454L0.864587 12.1354H5.41505V7.5846L3.71621 9.28355C2.86259 8.43093 2.38247 7.27421 2.38141 6.06768C2.38141 5.30922 2.57101 4.59627 2.89713 3.96674L9.02508 10.0951C8.82789 10.1937 8.64587 10.2847 8.44869 10.353V11.9382C9.04783 11.7789 9.61664 11.5286 10.1324 11.21L11.9222 13L12.8854 12.0368L0.970765 0.106184L0 1.06943ZM5.41505 1.78238V0.1972C4.80832 0.356476 4.23951 0.606768 3.72379 0.925321L4.83107 2.03267C5.03584 1.94166 5.21028 1.85064 5.41505 1.78238Z" fill="#A2A2A2"/>
</svg>
